<?xml version="1.0" encoding="UTF-8"?> <svg xmlns="http://www.w3.org/2000/svg" width="690" height="154" viewBox="0 0 690 154" fill="none"><path d="M312 47V57.0692H339.821V107H350.97V57.0692H379V47H312Z" fill="#4E4D4E"></path><path d="M477.583 67.6069C477.583 56.3668 467.592 47.3123 455.207 47.3123H406.5V58.5523V88.0055V107.468H417.636V88.0055H453.334L468.112 107.468H481.642L465.198 85.82C472.588 82.3855 477.583 75.5165 477.583 67.6069ZM417.636 58.4483V57.4075H455.207C461.347 57.4075 466.447 61.9868 466.447 67.6069C466.447 73.2269 461.452 77.8062 455.207 77.8062H417.636V58.4483Z" fill="#4E4D4E"></path><path d="M553.87 47L553.766 47.1041H541.277V47L541.173 47.1041L506.308 107.468H518.901L547.521 57.8238L576.246 107.468H588.839L553.87 47.1041V47Z" fill="#4E4D4E"></path><path d="M654.719 76.6615L688.751 47.1042H672.619L646.705 69.6885L620.79 47.1042H604.659L638.587 76.6615L603.41 107.468H619.541L646.705 83.7386L673.868 107.468H690L654.719 76.6615Z" fill="#4E4D4E"></path><path d="M128 60.9971V124L143 114.211V51L128 60.9971Z" fill="#479B6C"></path><path d="M21.8241 0L0 6.92712L128.139 61L143 51.0746L21.8241 0Z" fill="#5DBD79"></path><path d="M40.8522 33L19 39.9589L104.12 76L119 66.1328L40.8522 33Z" fill="#5DBD79"></path><path d="M104 75.823V139L119 129.28V66L104 75.823Z" fill="#479B6C"></path><path d="M81 91.8417V154L96 144.262V82L81 91.8417Z" fill="#479B6C"></path><path d="M58.9292 67L37 73.8089L81.0673 92L96 82.3455L58.9292 67Z" fill="#5DBD79"></path><path d="M168 60.9971V124L153 114.211V51L168 60.9971Z" fill="#479B6C"></path><path d="M274.176 0L153 51.0746L167.861 61L296 6.92712L274.176 0Z" fill="#5DBD79"></path><path d="M255.17 33L277 39.9589L191.969 76L177 66.1328L255.17 33Z" fill="#5DBD79"></path><path d="M192 75.823V139L177 129.28V66L192 75.823Z" fill="#479B6C"></path><path d="M215 91.8417V154L200 144.262V82L215 91.8417Z" fill="#479B6C"></path><path d="M236.442 67L258 73.8089L214.782 92L200 82.3455L236.442 67Z" fill="#5DBD79"></path></svg> 